<?xml version="1.0" encoding="iso-8859-1"?>
<!-- Generator: Adobe Illustrator 19.0.0, SVG Export Plug-In . SVG Version: 6.00 Build 0)  -->
<svg version="1.1" id="Layer_1" xmlns="http://www.w3.org/2000/svg" xmlns:xlink="http://www.w3.org/1999/xlink" x="0px" y="0px"
	 viewBox="0 0 511.99 511.99" style="enable-background:new 0 0 511.99 511.99;" xml:space="preserve">
<rect x="372.281" y="293.608" transform="matrix(-0.7209 0.6931 -0.6931 -0.7209 978.5741 420.9352)" style="fill:#FFD07D;" width="64.483" height="227.834"/>
<g style="opacity:0.15;">
	<polygon points="424.468,381.814 361.732,409.614 324.172,370.542 370.66,325.846 	"/>
</g>
<rect x="299.026" y="317.651" transform="matrix(-0.7209 0.6931 -0.6931 -0.7209 832.92 355.5782)" style="fill:#E04F5F;" width="91.66" height="55.73"/>
<g transform="matrix(0.7209 -0.6931 0.6931 0.7209 -9.733 23.752)">
	
		<ellipse transform="matrix(-0.7209 -0.6931 0.6931 -0.7209 -127.0682 477.4303)" cx="32.607" cy="264.303" rx="191.68" ry="191.68"/>
	
		<ellipse transform="matrix(-0.7209 -0.6931 0.6931 -0.7209 -127.0682 477.4303)" style="fill:#FFFFFF;" cx="32.607" cy="264.303" rx="158.112" ry="158.112"/>
</g>
<path style="fill:#8BA0AE;" d="M197.028,329.222c-0.928,0-1.848-0.008-2.784-0.024c-36.736-0.728-70.984-15.712-96.448-42.192
	s-39.088-61.288-38.36-98.024c0.72-36.728,15.704-70.976,42.184-96.44c26.48-25.456,61.144-39.28,98.024-38.36
	c36.728,0.72,70.976,15.704,96.448,42.184c52.552,54.664,50.84,141.896-3.832,194.472
	C266.46,315.654,232.732,329.222,197.028,329.222z M196.876,58.158c-34.664,0-67.416,13.176-92.488,37.28
	c-25.712,24.72-40.256,57.968-40.96,93.624c-0.696,35.664,12.528,69.464,37.256,95.176c51.024,53.064,135.728,54.744,188.816,3.712
	c53.08-51.032,54.744-135.736,3.704-188.816c-24.72-25.712-57.976-40.256-93.632-40.96C198.676,58.166,197.78,58.158,196.876,58.158
	z"/>
<g>
</g>
<g>
</g>
<g>
</g>
<g>
</g>
<g>
</g>
<g>
</g>
<g>
</g>
<g>
</g>
<g>
</g>
<g>
</g>
<g>
</g>
<g>
</g>
<g>
</g>
<g>
</g>
<g>
</g>
</svg>
